<svg id="Capa_1" enable-background="new 0 0 512 512" height="512" viewBox="0 0 512 512" width="512" xmlns="http://www.w3.org/2000/svg"><g><g><path d="m487.799 173.364-134.529 80.189c-9.932 5.92-13.91 18.1-9.904 28.557-5.998 2.516-12.711 2.634-18.86.258l-17.403-6.837c-6.943-2.729-14.438-3.204-21.672-1.372l-26.664 6.748c-1.034.261-2.047.567-3.038.914-16.29-9.3-25.994-12.08-43.184-5.433l-15.433 5.966c-7.293 2.819-15.334 2.15-22.077-1.844l-5.155-3.039c1.479-9.223-2.661-18.857-11.15-23.917l-134.529-80.19c-10.667-6.356-24.201 1.316-24.201 13.749v150.172c0 10.37 5.533 20.109 14.44 25.418l58.738 35.013c10.926 6.511 24.971 3.135 31.772-7.483l2.511 1.482-7.616 10.609c-8.507 11.847-5.802 28.32 6.047 36.828 5.857 4.205 12.995 5.791 19.989 4.549 1.071 7.077 4.883 13.307 10.702 17.485 5.841 4.193 13.024 5.771 19.999 4.534 1.027 6.794 4.682 13.185 10.692 17.499 8.098 5.813 18.139 6.287 26.29 2.608 1.793 4.97 5.038 9.281 9.422 12.429 11.39 8.176 27.184 5.969 35.918-4.853l19.729 11.688c4.211 2.495 8.839 3.681 13.41 3.681 9.025 0 17.83-4.624 22.754-12.936 2.079-3.509 3.25-7.31 3.582-11.125l.768.455c6.067 3.594 13.171 4.612 19.999 2.862 6.831-1.748 12.572-6.052 16.165-12.117 2.222-3.75 3.458-7.896 3.666-12.128 4.396 1.228 9.058 1.285 13.599.124 6.831-1.748 12.572-6.052 16.165-12.117 2.091-3.528 3.31-7.407 3.618-11.38 11.971 5.067 26.178.62 32.981-10.862 5.974-10.084 4.443-22.569-2.92-30.922l7.732-4.517c7.331 7.401 19.131 9.291 28.671 3.606l14.2-8.465c3.559-2.121 4.724-6.725 2.603-10.282-2.122-3.56-6.729-4.723-10.282-2.603l-14.2 8.465c-3.348 1.997-7.424 1.388-10.051-1.015-.049-.422-63.094-105.781-63.094-105.781-2.375-4.009-1.051-9.211 2.951-11.597l134.529-80.189c.686-.404 1.521.078 1.521.864v150.172c0 5.113-2.729 9.916-7.12 12.533l-14.179 8.452c-3.559 2.121-4.724 6.725-2.603 10.282 2.12 3.559 6.727 4.72 10.282 2.603l14.179-8.452c8.907-5.309 14.44-15.048 14.44-25.418v-150.171c.001-12.416-13.52-20.116-24.2-13.749zm-198.689 115.336c4.175-1.056 8.5-.782 12.508.792l17.441 6.852c10.41 4.025 21.779 3.583 31.697-1.102l51.139 86.32-8.287 4.842c-1.506.892-2.95 1.88-4.324 2.958l-109.371-64.769c-2.319-1.373-5.196-1.396-7.535-.062-2.341 1.334-3.786 3.821-3.786 6.516v1.507c0 5.335-2.078 10.351-5.852 14.122-3.771 3.769-8.783 5.843-14.112 5.843-.866-.032-1.629-.727-1.63-1.63v-35.595c0-7.755 4.341-14.677 10.984-18.144.33-.133.652-.29.962-.47 1.112-.508 2.283-.922 3.502-1.231zm-201.823 97.064c-2.197.556-4.481.229-6.429-.934l-58.738-35.012c-4.392-2.618-7.12-7.42-7.12-12.533v-150.172c0-.16 0-.585.509-.874.19-.108.361-.146.507-.146.244 0 .419.104.505.155l134.53 80.189c4.002 2.386 5.327 7.588 2.951 11.598l-61.516 103.837c-1.155 1.95-3.002 3.333-5.199 3.892zm35.841 43.19c-3.002.494-6.016-.213-8.489-1.987-2.471-1.774-4.104-4.404-4.597-7.406-.493-3.003.212-6.017 1.987-8.488l10.7-14.905c.261-.364.541-.707.835-1.03.222-.199.433-.414.633-.642 3.887-3.641 9.942-4.158 14.428-.938 5.102 3.663 6.273 10.794 2.61 15.896-.006.008-.012.017-.018.025l-10.683 14.88c-1.773 2.47-4.404 4.102-7.406 4.595zm22.202 20.046c-2.471-1.774-4.104-4.404-4.597-7.406-.493-3.003.212-6.017 1.987-8.488l10.7-14.905s0-.001.001-.001l11.808-16.448c1.774-2.472 4.404-4.104 7.407-4.598.625-.103 1.249-.153 1.87-.153 2.363 0 4.661.735 6.619 2.141 5.102 3.662 6.273 10.793 2.61 15.896l-22.51 31.354c-3.663 5.101-10.794 6.268-15.895 2.608zm39.179 24.02c-3.001.493-6.016-.213-8.488-1.987-5.102-3.662-6.273-10.793-2.61-15.895.006-.009.012-.017.018-.026l22.492-31.329c3.662-5.103 10.793-6.271 15.896-2.61 2.471 1.774 4.104 4.404 4.597 7.407.493 3.002-.213 6.017-1.987 8.488l-22.51 31.354c-1.775 2.472-4.406 4.105-7.408 4.598zm27.224 13.05c-2.471-1.774-4.104-4.404-4.597-7.407-.493-3.002.212-6.016 1.987-8.487.008-.011.015-.021.022-.032l7.471-10.406c3.666-5.092 10.789-6.259 15.887-2.599 5.102 3.663 6.273 10.794 2.61 15.896l-4.28 5.962c-.045.06-.089.122-.132.184l-3.073 4.281c-3.661 5.1-10.791 6.272-15.895 2.608zm180.702-64.167c-3.203 5.405-10.21 7.198-15.611 3.995l-17.339-10.271c-.008-.004-.015-.009-.023-.013l-53.7-31.814c-3.565-2.111-8.165-.934-10.275 2.629-2.111 3.564-.935 8.165 2.629 10.275l53.724 31.828s0 0 .001.001l.007.004c5.4 3.205 7.189 10.205 3.989 15.608-1.552 2.619-4.03 4.477-6.979 5.231s-6.016.317-8.635-1.236l-14.133-8.372c-.012-.007-.022-.014-.034-.021-.007-.004-.015-.009-.022-.013l-39.561-23.437c-3.565-2.112-8.164-.934-10.275 2.629-2.111 3.564-.935 8.165 2.629 10.275l39.562 23.438c.008.005.016.01.023.014 2.618 1.551 4.477 4.029 5.231 6.978.755 2.949.315 6.016-1.236 8.635s-4.029 4.477-6.979 5.231c-2.948.755-6.016.316-8.634-1.235l-21.211-12.566c-.014-.008-.027-.017-.04-.025l-15.512-9.189c-3.562-2.109-8.163-.934-10.275 2.631-2.11 3.563-.934 8.164 2.631 10.275l15.511 9.189.021.012c5.391 3.208 7.175 10.201 3.977 15.601-3.205 5.406-10.209 7.197-15.613 3.997l-18.566-10.999c7.979-11.775 5.162-27.889-6.462-36.235-3.553-2.55-7.53-4.088-11.586-4.672 1.794-4.435 2.344-9.289 1.549-14.13-1.142-6.956-4.925-13.051-10.651-17.162-6.009-4.313-13.233-5.733-19.999-4.534-1.027-6.794-4.682-13.185-10.692-17.499-5.727-4.111-12.709-5.745-19.667-4.604-5.81.954-11.018 3.75-14.972 7.982-1.842-3.446-4.479-6.533-7.861-8.962-8.963-6.434-20.629-6.43-29.447-.897l-5.318-3.139 51.028-86.133 3.768 2.221c6.337 3.755 13.406 5.66 20.528 5.66 4.913 0 9.851-.907 14.59-2.739l15.432-5.966c9.225-3.564 14.179-3.733 23.493.798-5.921 6.389-9.449 14.914-9.449 24.117v35.595c0 9.163 7.449 16.623 16.606 16.63h.023c9.335 0 18.112-3.634 24.716-10.233 4.008-4.005 6.924-8.812 8.599-14.058l104.464 61.862c.345.205.701.378 1.065.522.3.248.622.476.968.681 5.402 3.202 7.195 10.205 3.993 15.61z"/><path d="m170.027 198.651h171.945c15.568 0 28.233-12.665 28.233-28.233v-102.302c0-15.568-12.665-28.233-28.233-28.233h-41.392v-11.884c0-13.658-11.11-24.771-24.767-24.771h-39.629c-13.656 0-24.767 11.112-24.767 24.771v11.884h-41.392c-15.568 0-28.233 12.665-28.233 28.233v56.355c0 4.143 3.358 7.5 7.5 7.5s7.5-3.357 7.5-7.5v-13.939c7.982 7.163 18.526 11.526 30.069 11.526h5.87v8.25c0 4.143 3.358 7.5 7.5 7.5s7.5-3.357 7.5-7.5v-8.25h96.533v8.25c0 4.143 3.357 7.5 7.5 7.5s7.5-3.357 7.5-7.5v-8.25h5.869c11.544 0 22.088-4.363 30.07-11.526v59.885c0 7.297-5.937 13.233-13.233 13.233h-171.943c-7.297 0-13.233-5.937-13.233-13.233v-10.884c0-4.143-3.358-7.5-7.5-7.5s-7.5 3.357-7.5 7.5v10.884c0 15.569 12.665 28.234 28.233 28.234zm56.392-170.652c0-5.388 4.381-9.771 9.767-9.771h39.629c5.386 0 9.767 4.383 9.767 9.771v11.884h-59.162v-11.884zm98.717 79.059h-5.869v-8.25c0-4.143-3.357-7.5-7.5-7.5s-7.5 3.357-7.5 7.5v8.25h-96.533v-8.25c0-4.143-3.358-7.5-7.5-7.5s-7.5 3.357-7.5 7.5v8.25h-5.87c-16.58 0-30.069-13.489-30.069-30.069v-8.873c0-7.297 5.936-13.233 13.233-13.233h171.945c7.297 0 13.233 5.937 13.233 13.233v8.873c0 16.58-13.489 30.069-30.07 30.069z"/></g></g></svg>