<svg id="Layer_1" viewBox="0 0 512 512" xmlns="http://www.w3.org/2000/svg" data-name="Layer 1"><path d="m285.216 398.42a5.5 5.5 0 1 1 10.992 0c0 7.311 7.872 11.424 14.4 11.424s14.4-4.113 14.4-11.424c0-8.579-7.794-10.181-15.569-11.779-12.125-2.492-24.22-4.977-24.22-22.286 0-11.376 9.253-19.811 19.894-21.888v-8a5.5 5.5 0 0 1 10.993 0v8c10.638 2.077 19.894 10.512 19.894 21.888a5.5 5.5 0 0 1 -10.993 0c0-7.311-7.872-11.424-14.4-11.424s-14.4 4.113-14.4 11.424c0 8.383 7.7 9.966 15.418 11.552 12.175 2.501 24.375 5.009 24.375 22.513 0 11.376-9.253 19.811-19.895 21.888v8a5.5 5.5 0 1 1 -10.993 0v-8c-10.641-2.077-19.894-10.512-19.894-21.888zm74.166-187.86-16.782-2.466-7.095 27a5.484 5.484 0 0 1 -10.606-2.791l12.533-47.703-48.592 3.086 9.367 42.758a5.491 5.491 0 0 1 -10.735 2.319l-3.3-15.079-8.49 7.91 8.887 28.628h51.666l23.15-43.662zm-49.305 54.654 29.62 11.61a5.912 5.912 0 0 0 -1.576-11.61zm-29.571 11.23a20.086 20.086 0 0 1 .932-2.838 19.614 19.614 0 0 1 4.492-6.642 18.816 18.816 0 0 1 2.1-1.75h-4.94a5.941 5.941 0 0 0 -5.911 5.91 8.734 8.734 0 0 0 1.024 4.726c.741 1.09 1.257.833 2.3.594zm140.8 73.177 30.06 11.779 33.2-84.707-30.063-11.783q-16.6 42.353-33.2 84.707zm-82.456-61.344-37.2-14.58c-3.455-1.354-6.294-.591-8.123 1.167a8.568 8.568 0 0 0 -1.958 2.907 9.207 9.207 0 0 0 -.708 3.589c.027 2.824 1.58 5.7 5.2 7.339 16.135 7.3 29.533 12.111 43.929 21.481 17.4 11.326 21.909 14.261 49.681 12.033a5.476 5.476 0 0 1 2.741.493l24.134 8.991 21.86-55.772c-5.283-2.084-20.164-6.919-24-9.646l-39.406-28.157a60.014 60.014 0 0 0 -14.15-6.922l-13.623 25.7a17.036 17.036 0 0 1 2.836 2.286 16.832 16.832 0 0 1 .487 23.361c-2.375 2.583-8.045 7.161-11.7 5.733zm-66.734-37.192-26.645 6.723c-5.6 1.412-8.412 5.869-7.113 11.391 1.357 5.769 6.279 8.82 12.178 7.611l15.77-3.232c-.078-.8-.116-1.624-.116-2.454a16.964 16.964 0 0 1 7.741-14.191zm-201.134 77.031h34.718l-6.51-161.38h-21.7l-6.51 161.38zm-12.064 22.653h58.848v-11.39a.842.842 0 0 0 -.039-.27h-58.77a.842.842 0 0 0 -.039.27zm154.851 111.56c-2.274 2.6-2.465 5.313-1.385 7.653 1.612 3.5 5.4 6.17 8.892 7.545 5.155 2.028 11.2 1.969 15.3-1.937a36.87 36.87 0 0 1 21.221-9.867c9.554-1.278 19.53.248 29.777 1.816 7.483 1.144 15.122 2.313 22.448 2.313s14.966-1.169 22.449-2.313c18.76-2.871 36.642-5.606 51 8.052 4.1 3.9 10.146 3.964 15.3 1.936 3.5-1.377 7.278-4.046 8.892-7.544 1.079-2.341.888-5.056-1.385-7.654-25.345-28.951-23.454-58.629-21.306-92.348.6-9.443 1.225-19.222 1.225-29.572a45.836 45.836 0 0 0 -.517-6.893c-27.188 1.778-32.826-1.886-51.662-14.147-13.142-8.554-28.2-14.21-42.47-20.665a19.027 19.027 0 0 1 -10.579-11.104 69.227 69.227 0 0 0 -32.743 18.579c-8.917 9.284-14.376 21.11-14.376 34.235 0 3.626.056 6.765.149 9.568.222 6.665.652 13.351 1.075 20 2.158 33.871 3.917 63.539-21.305 92.35zm-13.775-428.677-172.994 76.187v23.281h345.99v-23.281zm-87.622 110.46h-48.06v11.362a.84.84 0 0 0 .039.269h47.982a.84.84 0 0 0 .039-.269zm58.76 0v11.362a.84.84 0 0 0 .039.269h47.982a.84.84 0 0 0 .039-.269v-11.362zm106.819 0v11.362a.84.84 0 0 0 .039.269h47.982a.84.84 0 0 0 .039-.269v-11.362zm34.88 22.624h-21.7l-.4 9.837 22.436-1.425-.339-8.412zm24.169-22.624h41.482a5.5 5.5 0 0 0 5.5-5.5l-.006-32.354a5.489 5.489 0 0 0 -3.279-5.024l-178.492-78.603a5.474 5.474 0 0 0 -4.423 0l-178.216 78.486a5.5 5.5 0 0 0 -3.56 5.145v32.354a5.5 5.5 0 0 0 5.5 5.5h31.814v11.362c0 5.954 4.582 11.262 10.7 11.262h2.507l-6.511 161.38h-1.392c-6.116 0-10.7 5.308-10.7 11.263v11.39h-26.424a5.5 5.5 0 0 0 -5.5 5.5v28.372a5.5 5.5 0 0 0 5.5 5.5h203.635c.645 23.486-2 44.868-19.611 64.982-5.587 6.384-5.932 13.323-3.1 19.461 2.815 6.105 8.7 10.745 14.861 13.169 8.715 3.429 19.229 3.042 26.853-4.213a25.912 25.912 0 0 1 15.081-6.947c7.928-1.06 17.2.358 26.728 1.816 7.9 1.209 15.968 2.443 24.08 2.443s16.179-1.235 24.081-2.443c16.06-2.457 31.369-4.8 41.807 5.132 7.624 7.254 18.139 7.641 26.854 4.212 6.164-2.425 12.045-7.063 14.861-13.169 2.83-6.138 2.485-13.077-3.1-19.461-22.354-25.535-20.6-53.114-18.6-84.448.622-9.776 1.268-19.9 1.268-30.259q0-2.16-.164-4.3l15.519 5.782-2.022 5.159c-2.049 4.685.709 10.4 5.336 12.219l32.94 12.912a9.46 9.46 0 0 0 12.219-5.347l34.327-87.576a9.461 9.461 0 0 0 -5.353-12.227l-32.93-12.908a9.461 9.461 0 0 0 -12.219 5.347l-2.442 6.229-22.2-8.76-38.856-27.759a68.776 68.776 0 0 0 -15.319-7.761l6.552-12.359a5.5 5.5 0 0 0 -3.921-8.244l-23.257-3.418 4.515-17.186a5.5 5.5 0 0 0 -5.6-7.053l-20.214 1.283-.312-7.717h2.503c6.115 0 10.7-5.31 10.7-11.262zm-114.131 195q-.015.648-.015 1.3c0 2.947.073 6.3.193 9.911l.015.449h-57.324v-11.39a.842.842 0 0 1 .039-.27zm.616-10.993-6.51-161.38h2.507c6.115 0 10.7-5.309 10.7-11.262v-11.365h36.774v11.362c0 5.954 4.583 11.262 10.7 11.262h2.506l-.441 10.934a5.493 5.493 0 0 0 -2.982 6.106l4.7 21.459-15.753 14.679a5.482 5.482 0 0 0 -1.5 5.623l4.672 15.05-26.048 6.572c-9.246 2.332-14.107 8.707-15.385 15.8a21.561 21.561 0 0 0 .242 8.731 22.188 22.188 0 0 0 3.66 7.962c4.39 6.019 11.839 9.852 21.4 7.892l1.613-.33a74.4 74.4 0 0 0 -14.013 11.36 61.737 61.737 0 0 0 -16.145 29.542zm-45.687 0 6.511-161.38h21.7l6.511 161.38zm-23.056 22.653h-25.983v-11.39c0-5.955-4.583-11.263-10.7-11.263h-1.391l-6.51-161.38h2.507c6.114 0 10.7-5.309 10.7-11.262v-11.365h36.774v11.362c0 5.954 4.583 11.262 10.7 11.262h2.506l-6.51 161.38h-1.391c-6.116 0-10.7 5.308-10.7 11.263v11.39zm-127.742 10.99h196.578c.182 3.177.366 6.057.547 8.9s.362 5.68.521 8.475h-197.646z" fill-rule="evenodd"/></svg>