<svg id="line" height="512" viewBox="0 0 512 512" width="512" xmlns="http://www.w3.org/2000/svg"><path d="m471.2207 257.98486c-12.61182-15.97705-35.37256-19.09424-51.81689-7.09814l-101.91931 74.3512-51.37219-37.8092c-10.0127-7.24658-21.83887-11.07666-34.19922-11.07666h-9.27637c-4.41846 0-8 3.58154-8 8s3.58154 8 8 8h9.27637c8.97021 0 17.55225 2.77979 24.76709 8.00049l47.24847 34.77448-20.9057 15.25092c-8.44727 6.16211-19.46533 7.01123-28.75781 2.21582l-28.89502-14.91357c-3.92578-2.02783-8.75146-.48682-10.77783 3.43994-2.02637 3.92578-.48633 8.75146 3.43994 10.77783l28.89502 14.91357c14.70801 7.59131 32.15332 6.24707 45.52539-3.50781l136.38086-99.49072c9.46631-6.90674 22.56885-5.11035 29.82861 4.08594 8.30566 10.52051 6.81836 25.56982-3.38574 34.26074l-172.73975 147.13232c-10.7627 9.1665-25.52051 11.40186-38.51318 5.83154l-100.104-42.9115v-133.35559c0-12.13086-9.86914-22-22-22h-67.91944c-12.13086 0-22 9.86914-22 22v141.61328c0 12.13086 9.86914 22 22 22h67.91943c9.14581 0 17.00354-5.61108 20.31805-13.57043l95.48224 40.9303c18.62073 7.98127 39.76862 4.77908 55.19189-8.35693l172.73975-147.13232c16.78418-14.2959 19.23096-39.05029 5.56934-56.35547zm-349.30127 168.48487h-67.91943c-3.30859 0-6-2.69141-6-6v-141.61328c0-3.30859 2.69141-6 6-6h67.91943c3.30859 0 6 2.69141 6 6v141.61328c0 3.30859-2.69141 6-6 6z"/><path d="m87.68115 234.49561 324.29199.14551c4.41846 0 8-3.58154 8-8v-180.6421c0-4.41846-3.58154-8-8-8h-91.94141c-4.41846 0-8 3.58154-8 8v88.69629l-44.37402-34.95654c-2.9043-2.28809-6.99707-2.28809-9.90137 0l-35.45978 27.93414c-.86481-20.63977-16.60071-37.51642-36.81036-40.30609l11.6759-20.36145c2.33203-4.06641 2.86621-8.76514 1.50439-13.23047-1.37012-4.49268-4.61719-8.28271-8.9082-10.39893l-6.73145-3.31885c-7.23633-3.56982-15.98438-1.87793-21.27051 4.11426l-7.87988 8.93115c-.65568.74355-2.04458.71135-2.66943-.00537l-7.98486-9.1665c-5.04102-5.7876-13.2334-7.64844-20.38574-4.63379l-9.61426 4.05322c-4.68408 1.97559-8.24951 5.8291-9.78174 10.57324-1.49805 4.63721-.89697 9.69531 1.64844 13.87598l11.85938 19.48175c-20.99176 2.69281-37.26709 20.55981-37.26709 42.14667v28.43018c0 18.86222-6.90013 30.3298-13.1084 42.85693-7.71036 15.55736 3.65934 33.78076 21.1084 33.78076zm184.91113-15.96582h-19.31201v-39.1499h19.31201zm55.43945-164.53076h75.94141v164.64208h-75.94141v-164.64209zm-65.32471 62.20801 49.32471 38.85645v63.46631h-23.43945v-40.5c0-8.07812-6.57178-14.6499-14.64941-14.6499h-22.0127c-8.07812 0-14.6499 6.57178-14.6499 14.6499v40.5l-23.89795-.01715v-63.44916l49.32471-38.85645zm-143.26854-58.11378 9.61377-4.05322c.73145-.30957 1.6377-.1377 2.10498.3999l7.98535 9.1665c6.98916 8.02406 19.692 8.06109 26.73193.08154l7.87939-8.93115c.49365-.55957 1.4585-.71533 2.19678-.34961 11.12711 5.48688 8.6666 2.31045-8.66608 32.53705l-31.82159-.01898c-17.01821-27.95598-18.09193-27.95976-16.02454-28.83203zm-38.52979 149.72607c6.95053-14.02488 14.77246-27.43979 14.77246-49.96143v-28.43018c0-14.61768 12.00781-26.51025 26.7627-26.51025l57.13086.03418c14.75977 0 26.76758 11.89258 26.76758 26.51025v10.7793l-5.91064 4.65625c-1.92529 1.5166-3.04932 3.83301-3.04932 6.28418v67.32214l-109.70117-.00818c-5.57536 0-9.21339-5.75139-6.77246-10.67627z"/><path d="m380.95068 98.0957c4.41846 0 8-3.58154 8-8v-4.68945c0-4.41846-3.58154-8-8-8s-8 3.58154-8 8v4.68945c0 4.41846 3.58154 8 8 8z"/><path d="m349.45996 98.0957c4.41846 0 8-3.58154 8-8v-4.68945c0-4.41846-3.58154-8-8-8s-8 3.58154-8 8v4.68945c0 4.41846 3.58154 8 8 8z"/><path d="m380.95068 129.34717c4.41846 0 8-3.58154 8-8v-4.68945c0-4.41846-3.58154-8-8-8s-8 3.58154-8 8v4.68945c0 4.41846 3.58154 8 8 8z"/><path d="m349.45996 129.34717c4.41846 0 8-3.58154 8-8v-4.68945c0-4.41846-3.58154-8-8-8s-8 3.58154-8 8v4.68945c0 4.41846 3.58154 8 8 8z"/><path d="m382.54492 143.29297c-4.41846 0-8 3.58154-8 8v4.68945c0 4.41846 3.58154 8 8 8s8-3.58154 8-8v-4.68945c0-4.41846-3.58154-8-8-8z"/><path d="m351.05469 143.29297c-4.41846 0-8 3.58154-8 8v4.68945c0 4.41846 3.58154 8 8 8s8-3.58154 8-8v-4.68945c0-4.41846-3.58154-8-8-8z"/><path d="m382.54492 174.54443c-4.41846 0-8 3.58154-8 8v4.68945c0 4.41846 3.58154 8 8 8s8-3.58154 8-8v-4.68945c0-4.41846-3.58154-8-8-8z"/><path d="m351.05469 174.54443c-4.41846 0-8 3.58154-8 8v4.68945c0 4.41846 3.58154 8 8 8s8-3.58154 8-8v-4.68945c0-4.41846-3.58154-8-8-8z"/><path d="m151.01172 167.48047c3.67578 0 6.6665 2.99072 6.6665 6.6665s-2.99072 6.66602-6.6665 6.66602c-2.86279 0-5.40137-1.81885-6.31738-4.52637-1.41553-4.18555-5.9541-6.42871-10.14209-5.01416-4.18506 1.41602-6.43018 5.95703-5.01416 10.14209 2.22107 6.5647 7.24951 11.5791 13.47363 13.92676v4.93018c0 4.41846 3.58154 8 8 8s8-3.58154 8-8v-4.92084c8.56152-3.24091 14.6665-11.521 14.6665-21.20367 0-12.49854-10.16797-22.6665-22.6665-22.6665-3.67578 0-6.66602-2.99023-6.66602-6.66602s2.99023-6.6665 6.66602-6.6665c2.15332 0 4.18652 1.05029 5.43945 2.80957 2.56152 3.59912 7.55713 4.43945 11.15674 1.87646 3.59912-2.5625 4.43945-7.55762 1.87646-11.15674-2.64264-3.71143-6.31403-6.49097-10.47266-8.06323v-6.30249c0-4.41846-3.58154-8-8-8s-8 3.58154-8 8v6.29889c-8.5611 3.24097-14.66602 11.52106-14.66602 21.20404 0 12.49806 10.16797 22.66602 22.66602 22.66602z"/><circle cx="194.968" cy="284.12" r="9"/><circle cx="166.968" cy="284.12" r="9"/></svg>