<svg height="512pt" viewBox="0 -16 512 512" width="512pt" xmlns="http://www.w3.org/2000/svg"><path d="m400.78125 376.234375v8.851563c-9.101562 1.65625-16.03125 9.628906-16.03125 19.203124 0 10.773438 8.765625 19.539063 19.539062 19.539063h8.015626c2.488281 0 4.507812 2.023437 4.507812 4.507813 0 2.488281-2.019531 4.507812-4.507812 4.507812h-20.039063c-4.152344 0-7.515625 3.367188-7.515625 7.515625 0 4.152344 3.363281 7.515625 7.515625 7.515625h8.515625v8.515625c0 4.152344 3.363281 7.515625 7.515625 7.515625s7.515625-3.363281 7.515625-7.515625v-8.847656c9.101562-1.660157 16.03125-9.632813 16.03125-19.207031 0-10.773438-8.765625-19.539063-19.539062-19.539063h-8.015626c-2.484374 0-4.507812-2.019531-4.507812-4.507813 0-2.484374 2.023438-4.507812 4.507812-4.507812h20.039063c4.152344 0 7.515625-3.363281 7.515625-7.515625 0-4.148437-3.363281-7.515625-7.515625-7.515625h-8.515625v-8.515625c0-4.148437-3.363281-7.515625-7.515625-7.515625s-7.515625 3.367188-7.515625 7.515625zm0 0"/><path d="m71.140625 143.78125v-8.851562c9.101563-1.65625 16.03125-9.628907 16.03125-19.203126 0-10.773437-8.765625-19.539062-19.539063-19.539062h-8.015624c-2.488282 0-4.507813-2.023438-4.507813-4.507812 0-2.488282 2.019531-4.507813 4.507813-4.507813h20.039062c4.148438 0 7.515625-3.367187 7.515625-7.515625 0-4.152344-3.367187-7.515625-7.515625-7.515625h-8.515625v-8.515625c0-4.152344-3.367187-7.515625-7.515625-7.515625-4.152344 0-7.515625 3.363281-7.515625 7.515625v8.847656c-9.101563 1.660156-16.03125 9.632813-16.03125 19.207032 0 10.773437 8.765625 19.539062 19.539063 19.539062h8.015624c2.484376 0 4.507813 2.019531 4.507813 4.507812 0 2.484376-2.023437 4.507813-4.507813 4.507813h-20.039062c-4.152344 0-7.515625 3.363281-7.515625 7.515625 0 4.148438 3.363281 7.515625 7.515625 7.515625h8.515625v8.515625c0 4.148438 3.363281 7.515625 7.515625 7.515625 4.148438 0 7.515625-3.367187 7.515625-7.515625zm0 0"/><path d="m512 103.703125c0-57.183594-46.519531-103.703125-103.703125-103.703125-25.859375 0-49.539063 9.515625-67.722656 25.230469-26.761719-11.414063-55.195313-17.214844-84.574219-17.214844-53.265625 0-104.097656 19.414063-143.707031 54.769531-11.679688-13.871094-29.160157-22.707031-48.667969-22.707031-35.082031 0-63.625 28.542969-63.625 63.625 0 29.734375 20.507812 54.761719 48.117188 61.703125-5.332032 18.972656-8.039063 38.628906-8.039063 58.53125 0 57.675781 22.460937 111.898438 63.242187 152.679688s95.003907 63.242187 152.679688 63.242187c30.632812 0 61.101562-6.582031 88.847656-19.089844 2.296875 33.007813 29.867188 59.167969 63.449219 59.167969 35.082031 0 63.625-28.542969 63.625-63.625 0-28.507812-18.851563-52.699219-44.738281-60.761719 28.914062-37.59375 44.738281-83.964843 44.738281-131.613281 0-12.121094-1.019531-24.273438-3.019531-36.136719 26.085937-18.851562 43.097656-49.523437 43.097656-84.097656zm-182.855469-66.917969c-2.921875 3.449219-5.625 7.089844-8.082031 10.902344-5.214844-7.1875-10.691406-13.4375-16.398438-18.710938 8.296876 2.066407 16.464844 4.671876 24.480469 7.808594zm22.167969 153.515625c.710938 8.589844 1.140625 17.347657 1.300781 26.121094h-89.097656v-81.15625h45.996094c7.289062 22.757813 22.238281 42.117187 41.800781 55.035156zm105.429688 41.152344c-1.0625 28.316406-8.109376 55.980469-20.480469 81.15625h-78.199219c5.808594-25.277344 9.089844-52.746094 9.582031-81.15625zm-114.105469 81.15625h-79.121094v-81.15625h89.097656c-.511719 28.574219-3.929687 56.085937-9.976562 81.15625zm-179.351563-31.996094c-.589844-4.105469-4.394531-6.957031-8.507812-6.367187-4.105469.59375-6.957032 4.402344-6.367188 8.511718 1.480469 10.285157 3.332032 20.253907 5.53125 29.851563h-78.167968c-12.175782-24.640625-19.4375-52.121094-20.511719-81.15625h89.09375c.105469 6.011719.328125 12.019531.683593 17.9375.238282 3.988281 3.546876 7.066406 7.492188 7.066406.152344 0 .304688-.003906.457031-.015625 4.144531-.246094 7.300781-3.804687 7.050781-7.949218-.335937-5.621094-.546874-11.328126-.652343-17.042969h89.097656v81.160156h-79.0625c-2.488281-10.28125-4.550781-20.984375-6.136719-31.996094zm141.308594-176.910156c0 5.625.457031 11.144531 1.324219 16.53125h-42.402344v-96.570313c22.050781 3.601563 38.847656 22.484376 49.574219 38.953126-5.460938 12.605468-8.496094 26.496093-8.496094 41.085937zm-56.109375-80.027344v96.558594h-75.097656c4.300781-14.53125 9.535156-28.070313 15.652343-40.300781 16.480469-32.96875 37.359376-52.613282 59.445313-56.257813zm0 111.589844v81.15625h-89.097656c.511719-28.574219 3.929687-56.085937 9.976562-81.15625zm0 192.375v96.570313c-22.058594-3.613282-38.839844-22.539063-49.402344-38.683594-10.3125-15.757813-19.023437-35.558594-25.628906-57.886719zm15.03125 96.558594v-96.558594h75.097656c-4.300781 14.53125-9.535156 28.070313-15.652343 40.300781-16.480469 32.964844-37.359376 52.613282-59.445313 56.257813zm-56.183594-395.199219c-11.742187 10.828125-22.472656 25.683594-31.734375 44.210938-7.097656 14.191406-13.066406 30.015624-17.835937 47.023437h-32.707031c1.421874-5.273437 2.191406-10.8125 2.191406-16.53125 0-10.121094-2.386719-19.6875-6.605469-28.191406 24.863281-22.691407 54.617187-38.535157 86.691406-46.511719zm-192.300781 74.703125c0-26.796875 21.796875-48.59375 48.59375-48.59375 26.792969 0 48.59375 21.796875 48.59375 48.59375 0 26.792969-21.800781 48.59375-48.59375 48.59375-26.796875 0-48.59375-21.800781-48.59375-48.59375zm48.59375 63.625c23.601562 0 44.226562-12.929687 55.207031-32.0625h35.105469c-5.808594 25.277344-9.089844 52.746094-9.582031 81.15625h-89.109375c.617187-16.707031 3.285156-33.179687 7.953125-49.105469.140625 0 .28125.011719.425781.011719zm20.378906 160.3125h73.746094c7.105469 25.457031 16.816406 47.867187 28.757812 66.117187 6.496094 9.929688 13.460938 18.308594 20.796876 25.09375-52.089844-13.019531-96.195313-46.421874-123.300782-91.210937zm372.886719 88.671875c0 26.796875-21.796875 48.59375-48.59375 48.59375-26.792969 0-48.59375-21.796875-48.59375-48.59375 0-26.792969 21.800781-48.59375 48.59375-48.59375 26.796875 0 48.59375 21.800781 48.59375 48.59375zm-48.59375-63.625c-30.726563 0-56.433594 21.894531-62.34375 50.902344-13.113281 6.574218-26.964844 11.6875-41.234375 15.238281 11.722656-10.820313 22.433594-25.660156 31.683594-44.164063 7.097656-14.191406 13.070312-30.015624 17.835937-47.023437h73.820313c-5.285156 8.773437-11.257813 17.167969-17.886719 25.09375-.625-.015625-1.246094-.046875-1.875-.046875zm48.445313-136.265625h-89.101563c-.101563-5.894531-.328125-11.777344-.667969-17.617187 12.667969 5.527343 26.644532 8.601562 41.324219 8.601562 16.789063 0 32.652344-4.015625 46.695313-11.125.914062 6.65625 1.503906 13.390625 1.75 20.140625zm-48.445313-24.046875c-48.894531 0-88.671875-39.777344-88.671875-88.671875s39.777344-88.671875 88.671875-88.671875 88.671875 39.777344 88.671875 88.671875-39.777344 88.671875-88.671875 88.671875zm0 0"/><path d="m400.28125 63.125h40.078125c4.152344 0 7.515625-3.367188 7.515625-7.515625 0-4.152344-3.363281-7.515625-7.515625-7.515625h-24.546875v-16.53125c0-4.152344-3.363281-7.515625-7.515625-7.515625s-7.515625 3.363281-7.515625 7.515625v16.53125h-.5c-17.402344 0-31.5625 14.160156-31.5625 31.5625s14.160156 31.5625 31.5625 31.5625h16.03125c9.117188 0 16.53125 7.414062 16.53125 16.53125s-7.414062 16.53125-16.53125 16.53125h-40.078125c-4.152344 0-7.515625 3.363281-7.515625 7.515625 0 4.148437 3.363281 7.515625 7.515625 7.515625h24.546875v16.53125c0 4.148438 3.363281 7.515625 7.515625 7.515625s7.515625-3.367187 7.515625-7.515625v-16.53125h.5c17.402344 0 31.5625-14.160156 31.5625-31.5625s-14.160156-31.5625-31.5625-31.5625h-16.03125c-9.117188 0-16.53125-7.417969-16.53125-16.53125 0-9.117188 7.414062-16.53125 16.53125-16.53125zm0 0"/></svg>