<svg id="Layer_1" enable-background="new 0 0 512 512" height="512" viewBox="0 0 512 512" width="512" xmlns="http://www.w3.org/2000/svg"><path d="m408.99 103.56c28.72 0 52.09-23.37 52.09-52.09s-23.37-52.08-52.09-52.08-52.09 23.36-52.09 52.08 23.37 52.09 52.09 52.09zm0-88.16c19.89 0 36.07 16.18 36.07 36.07s-16.18 36.07-36.07 36.07-36.07-16.18-36.07-36.07 16.18-36.07 36.07-36.07zm-253.36 88.16c28.72 0 52.09-23.37 52.09-52.09s-23.37-52.08-52.09-52.08-52.09 23.37-52.09 52.09 23.36 52.08 52.09 52.08zm0-88.16c19.89 0 36.07 16.18 36.07 36.07s-16.18 36.07-36.07 36.07-36.07-16.18-36.07-36.07 16.18-36.07 36.07-36.07zm126.68 129.38c28.72 0 52.09-23.37 52.09-52.09s-23.37-52.09-52.09-52.09-52.09 23.37-52.09 52.09 23.36 52.09 52.09 52.09zm0-88.16c19.89 0 36.07 16.18 36.07 36.07s-16.18 36.07-36.07 36.07-36.07-16.18-36.07-36.07 16.18-36.07 36.07-36.07zm229.52 356.95-29.17-136.46c-.44-2.08-1.69-3.89-3.48-5.05-1.78-1.16-3.95-1.55-6.03-1.11l-65.91 14.09h-.01l-28.78 6.14c-3.73-2.19-7.49-4.25-11.28-6.2 7.56-6.18 12.36-15.58 12.36-26.08v-7.58h93.05c18.55 0 33.63-15.09 33.63-33.63v-36.79c0-38.85-31.61-70.46-70.46-70.46h-53.55c-28.01 0-53.05 16.54-64.31 41.78-2.88-.36-5.81-.57-8.79-.57h-53.57c-2.98 0-5.91.21-8.79.57-11.27-25.25-36.3-41.78-64.31-41.78h-53.57c-38.85 0-70.46 31.61-70.46 70.46v36.79c0 18.54 15.09 33.63 33.63 33.63h93.05v7.58c0 4.93 1.07 9.66 3.03 13.96-13.22 3.59-26.09 7.62-38.7 11.58-6.68 2.09-13.02 4.08-19.38 6l-25.23-5.41-65.93-14.09c-4.33-.92-8.58 1.83-9.5 6.16l-29.2 136.47c-.44 2.08-.04 4.25 1.11 6.03s2.97 3.03 5.05 3.48l65.93 14.09h.01c.25.05.5.09.75.12.03 0 .06.01.09.01.07.01.14.01.2.01.21.02.42.03.63.03h.03c5.4.01 16.85 2.74 26.04 5.45-.42 6.84 1.68 13.83 6.41 19.44.12.17.26.33.39.49 5.43 6.16 13.02 9.31 20.66 9.31 6.47 0 12.97-2.26 18.2-6.86h.01l.86-.76c1.12 3.76 3.04 7.26 5.71 10.27 4.83 5.51 11.54 8.8 18.89 9.28.61.04 1.22.06 1.83.06 3.44 0 6.8-.64 9.93-1.86.98 4.36 3.03 8.54 6.18 12.12 4.85 5.51 11.58 8.8 18.93 9.26.59.04 1.18.06 1.76.06 6.71 0 13.1-2.41 18.16-6.87l4.23-3.73c1.1 3.71 3 7.24 5.72 10.32 4.85 5.51 11.57 8.79 18.93 9.25.59.04 1.18.06 1.77.06 6.72 0 13.11-2.41 18.16-6.87l7.09-6.27c.72-.63 1.39-1.29 2.04-1.98 34-5.36 69.96-22.05 109.76-50.9l44.13-9.43 65.91-14.09c4.33-.94 7.09-5.2 6.16-9.52zm-133.09-106.06 24.03-5.13 25.82 120.8-33.13 7.08c-21.06-25.12-49.23-39.29-76.53-53.02-31.64-15.91-61.52-30.94-77.55-61.59-1.18-2.26-3.36-3.82-5.88-4.2-2.52-.39-5.07.45-6.87 2.25-19.9 19.85-46.05 29.4-61.57 28.61-4.36-.23-6.38-1.25-6.92-1.71.03-1.19 1.64-5.41 9.08-12.28l49.6-46.26c58.06-11.15 108.49-3.13 154.09 24.49 1.76 1.03 3.84 1.38 5.83.96zm3.46-181.05h53.58c30.02 0 54.44 24.42 54.44 54.44v36.79c0 9.71-7.9 17.62-17.62 17.62h-93.05v-13.2c0-30.17-19.07-55.97-45.79-65.99 9.23-18.02 27.79-29.66 48.44-29.66zm-290.18 108.85c-9.71 0-17.62-7.9-17.62-17.62v-36.79c0-30.02 24.42-54.44 54.44-54.44h53.57c20.65 0 39.21 11.64 48.44 29.67-26.72 10.02-45.79 35.82-45.79 65.99v13.2h-93.04zm109.06 23.6v-36.79c0-30.02 24.42-54.44 54.44-54.44h53.57c30.02 0 54.44 24.42 54.44 54.44v36.79c0 8.73-6.68 16.25-15.19 17.47-40.9-16.37-85.35-19.51-134.87-9.62-.01 0-.01 0-.02 0s-.02 0-.03 0c-3.12.64-6.21 1.33-9.28 2.05-1.96-2.86-3.06-6.28-3.06-9.9zm-157.76 29.38 50.27 10.74-25.82 120.8-50.27-10.75zm40.29 134.05 25.64-119.96 19.41 4.16c.55.12 1.12.18 1.68.18.77 0 1.55-.11 2.29-.33 7.13-2.13 14.46-4.43 21.55-6.65 10.75-3.37 21.7-6.8 32.84-9.94l-28.69 26.76c-11.1 10.25-15.73 19.63-13.76 27.87.84 3.51 3.71 9.81 13.51 12.58 16.94 4.8 48.69-3.61 74.31-25.08 19.13 29.31 49.7 44.69 79.35 59.61 24.68 12.41 50.11 25.21 68.9 46.09-31.63 22.19-60.43 36.09-87.49 42.18.26-7.09-2.14-13.87-6.83-19.2-6.09-6.89-14.9-9.99-23.44-9.14-.4-5.82-2.65-11.55-6.79-16.25-4.85-5.51-11.57-8.79-18.93-9.25-4.06-.26-8.03.37-11.7 1.79-.98-4.36-3.04-8.55-6.2-12.14-4.86-5.5-11.58-8.78-18.92-9.24-7.35-.47-14.44 1.96-19.93 6.81l-.87.77c-1.1-3.71-3-7.24-5.72-10.33-10.05-11.37-27.49-12.46-38.88-2.43l-25.69 22.65c-1.36 1.21-2.58 2.52-3.64 3.91-6.15-1.85-14.58-4.13-22-5.42zm35.5 30.09c-.09-.12-.19-.23-.29-.34-4.2-4.75-3.73-12.04 1.03-16.24l25.68-22.64c4.77-4.2 12.08-3.74 16.28 1.01 4.17 4.73 3.75 11.94-.9 16.15l-6.21 5.47c-.13.12-.25.24-.38.35l-19.22 16.95c-4.69 4.11-11.77 3.77-15.99-.71zm53.05 15.53c-3.08-.2-5.88-1.57-7.9-3.88-2.02-2.29-3.02-5.24-2.83-8.32.19-2.99 1.49-5.72 3.66-7.73l6.29-5.55c.09-.08.17-.16.25-.23l19.37-17.07c2.1-1.86 4.76-2.85 7.57-2.85.25 0 .5.01.75.02 3.08.2 5.9 1.57 7.92 3.85 4.18 4.75 3.75 11.99-.95 16.19l-14.79 13.02c-.16.14-.31.29-.46.43l-10.53 9.28c-2.28 2.03-5.25 3.04-8.35 2.84zm45.18 16.73c0 .01 0 .01 0 0-2.3 2.03-5.27 3.04-8.34 2.85-3.08-.19-5.89-1.56-7.91-3.86-4.12-4.68-3.74-11.8.78-16.03l14.94-13.18c.05-.04.09-.09.14-.13l10.87-9.58c2.1-1.86 4.77-2.85 7.58-2.85.25 0 .5.01.75.02 3.09.19 5.9 1.56 7.92 3.86 4.2 4.75 3.73 12.04-1.02 16.24zm48.81 9.05c-2.28 2.02-5.25 3.02-8.32 2.83-3.09-.19-5.9-1.56-7.92-3.86-4.2-4.75-3.73-12.04 1.03-16.25l7.1-6.28c4.79-4.19 12.09-3.73 16.28 1.01 2.02 2.3 3.03 5.27 2.83 8.36-.2 3.08-1.57 5.88-3.88 7.9zm178.1-73.91-25.82-120.8 50.24-10.74 25.82 120.8z"/></svg>