<svg id="Capa_1" enable-background="new 0 0 512.004 512.004" height="512" viewBox="0 0 512.004 512.004" width="512" xmlns="http://www.w3.org/2000/svg"><g><path d="m7.501 176.991c.787 0 1.587-.125 2.374-.387 13.822-4.611 37.039-18.264 47.772-28.093l25.61-23.45c3.055-2.797 3.264-7.542.466-10.596-2.797-3.055-7.54-3.263-10.596-.466l-25.61 23.45c-9.177 8.404-30.569 20.984-42.388 24.926-3.93 1.311-6.052 5.559-4.742 9.488 1.049 3.141 3.974 5.128 7.114 5.128z"/><path d="m78.559 237.205c12.591-2.197 24.217-8.659 32.735-18.195l74.854-83.799c4.254-4.763 6.401-10.897 6.045-17.272-.364-6.444-3.241-12.403-8.12-16.634.799-.699 1.627-1.367 2.516-1.963l48.469-32.609c6.959-4.681 11.114-12.488 11.114-20.884 0-7.145-3.055-13.972-8.385-18.734-7.606-6.792-18.465-8.317-27.667-3.879l-72.219 34.884c-5.275 2.557-10.127 5.846-14.423 9.777l-24.53 22.46c-3.055 2.797-3.264 7.542-.467 10.597 2.798 3.056 7.542 3.264 10.597.467l24.528-22.458c3.224-2.95 6.87-5.421 10.829-7.34l72.205-34.877c3.711-1.79 8.093-1.178 11.155 1.557 2.178 1.946 3.377 4.626 3.377 7.547 0 3.444-1.635 6.52-4.486 8.438l-48.462 32.602c-3.491 2.342-6.563 5.201-9.162 8.512-6.296-.218-12.649 1.977-17.464 6.61l-55.354 53.246.004.004c-1.418 1.365-2.305 3.278-2.305 5.401 0 4.142 3.358 7.5 7.5 7.5 2.019 0 3.847-.802 5.195-2.099l.004.004 55.354-53.247c3.422-3.292 8.695-3.372 12.266-.182 1.771 1.583 2.82 3.761 2.953 6.135.133 2.377-.668 4.665-2.256 6.442l-74.854 83.799c-6.279 7.029-14.848 11.792-24.127 13.412-6.518 1.138-13.302.706-19.619-1.249-11.908-3.684-24.781-3.007-36.246 1.904l-15.553 6.665c-3.808 1.631-5.572 6.04-3.941 9.847 1.218 2.845 3.987 4.549 6.897 4.549.985 0 1.987-.195 2.95-.608l15.556-6.663c8.195-3.511 17.396-3.994 25.906-1.362 8.576 2.652 17.785 3.239 26.631 1.695z"/><path d="m276.948 66.735 48.468 32.603c.888.597 1.719 1.263 2.519 1.964-4.881 4.231-7.759 10.19-8.122 16.636-.355 6.374 1.792 12.506 6.046 17.268l49.55 55.48c1.481 1.659 3.534 2.504 5.596 2.504 1.778 0 3.563-.628 4.994-1.906 3.089-2.759 3.357-7.5.598-10.59l-49.551-55.481c-1.587-1.776-2.388-4.063-2.256-6.439.132-2.373 1.18-4.549 2.948-6.129 1.679-1.499 3.829-2.325 6.055-2.325 2.326 0 4.531.89 6.211 2.505l55.36 53.241.004-.004c1.348 1.297 3.176 2.098 5.195 2.098 4.142 0 7.5-3.358 7.5-7.5 0-2.124-.887-4.037-2.305-5.402l.004-.004-55.358-53.238c-4.69-4.504-11.004-6.971-17.511-6.654-2.584-3.279-5.635-6.134-9.104-8.468l-48.469-32.605c-2.624-1.765-4.252-4.585-4.468-7.738-.215-3.143 1.007-6.148 3.354-8.245 3.068-2.74 7.449-3.352 11.157-1.561l72.208 34.881c3.949 1.907 7.591 4.376 10.826 7.338l75.955 69.544c10.743 9.836 33.963 23.49 47.779 28.094.787.262 1.586.387 2.372.387 3.14 0 6.067-1.988 7.114-5.131 1.31-3.93-.814-8.177-4.744-9.486-11.812-3.937-33.206-16.516-42.392-24.927l-75.956-69.544c-4.312-3.947-9.167-7.238-14.43-9.781l-72.208-34.881c-9.197-4.442-20.06-2.92-27.674 3.88-5.826 5.204-8.861 12.66-8.327 20.458.536 7.806 4.567 14.789 11.062 19.158z"/><path d="m507.444 229.744-15.555-6.658c-11.469-4.918-24.342-5.594-36.244-1.902-3.998 1.237-8.17 1.865-12.402 1.865-2.429 0-4.86-.208-7.218-.618-4.645-.812-9.083-2.385-13.196-4.677-4.113-2.288-7.792-5.23-10.933-8.742l-1.93-2.16c-2.76-3.089-7.5-3.356-10.59-.597-3.089 2.759-3.356 7.5-.597 10.59l1.932 2.163c4.261 4.764 9.249 8.753 14.821 11.852 5.58 3.109 11.605 5.244 17.917 6.348 3.211.558 6.506.841 9.793.841 5.737 0 11.401-.853 16.841-2.537 8.502-2.638 17.698-2.155 25.897 1.362l15.56 6.66c.962.412 1.963.607 2.948.607 2.911 0 5.681-1.706 6.898-4.551 1.631-3.808-.134-8.216-3.942-9.846z"/><path d="m447.895 288.616c-14.552-14.552-33.826-22.567-54.273-22.567-16.919 0-32.57 5.509-45.278 14.81v-49.027c0-50.454-41.048-91.502-91.502-91.502s-91.501 41.048-91.501 91.502v51.761c-12.708-9.3-28.358-14.809-45.277-14.809-42.372 0-76.843 34.472-76.843 76.843v43.928c0 8.948 7.28 16.229 16.229 16.229h26.982c2.133 2.394 4.46 4.635 6.971 6.697v14.142l-15.8 5.311c-5.189 1.745-9.913 5.048-13.659 9.552-5.628 6.768-8.728 15.708-8.728 25.172v17.125c0 4.142 3.358 7.5 7.5 7.5s7.5-3.358 7.5-7.5v-17.125c0-5.882 1.917-11.561 5.261-15.582 2.09-2.508 4.573-4.218 7.343-5.073 7.168 14.266 21.301 22.855 37.244 22.85 15.942.006 30.077-8.584 37.244-22.85 2.77.855 5.254 2.564 7.344 5.073 3.344 4.021 5.261 9.7 5.261 15.582v17.125c0 4.142 3.358 7.5 7.5 7.5s7.5-3.358 7.5-7.5v-17.125c0-9.464-3.1-18.404-8.728-25.172-3.746-4.505-8.47-7.808-13.66-9.552l-15.799-5.311v-14.143c2.511-2.062 4.839-4.302 6.971-6.696h26.982c8.948 0 16.229-7.28 16.229-16.229v-19.706l16.788-4.639c.084.099.162.201.252.297l35.395 37.772v80.504c0 4.142 3.358 7.5 7.5 7.5s7.5-3.358 7.5-7.5v-80.496c.257-.303 35.445-37.769 35.652-38.075l19.353 5.347c5.244 14.046 18.122 24.514 33.875 26.05 3.607 5.975 8.232 11.353 13.737 15.872v14.142l-15.799 5.311c-5.19 1.745-9.914 5.048-13.659 9.552-5.628 6.768-8.729 15.708-8.729 25.172v17.125c0 4.142 3.358 7.5 7.5 7.5s7.5-3.358 7.5-7.5v-17.125c0-4.061.933-8.012 2.6-11.401.047-.014.093-.022.14-.036 5.076-1.588 16.396 1.229 26.562 8.697 8.169 6.001 13.046 13.264 13.046 19.428 0 4.142 3.358 7.5 7.5 7.5s7.5-3.358 7.5-7.5c0-6.164 4.877-13.427 13.046-19.428 10.166-7.468 21.489-10.286 26.562-8.697.046.015.093.023.14.036 1.667 3.389 2.6 7.34 2.6 11.401v17.125c0 4.142 3.358 7.5 7.5 7.5s7.5-3.358 7.5-7.5v-17.125c0-9.464-3.1-18.404-8.728-25.172-3.746-4.505-8.469-7.808-13.66-9.553l-15.799-5.311v-14.142c5.512-4.525 10.142-9.911 13.752-15.896 14.39-1.462 27.253-10.779 33.084-24.16 1.655-3.797-.082-8.217-3.879-9.872-3.797-1.654-8.217.082-9.872 3.879-2.444 5.609-6.844 10.083-12.174 12.73 1.144-4.733 1.745-9.636 1.745-14.626v-18.669c0-7.691-3.925-14.687-10.5-18.713-6.48-3.969-14.367-4.289-21.096-.855-5.534 2.824-11.496 4.255-17.722 4.255s-12.188-1.432-17.722-4.255c-6.728-3.434-14.615-3.114-21.096.855-6.575 4.026-10.5 11.022-10.5 18.713v18.668c0 4.993.602 9.899 1.747 14.634-8.438-4.224-14.269-13.023-14.269-22.832v-13.45c0-34.099 27.742-61.84 61.84-61.84 16.44 0 31.948 6.454 43.667 18.173 9.756 9.755 16.045 22.583 17.709 36.122.506 4.111 4.249 7.034 8.359 6.529 4.111-.505 7.034-4.248 6.529-8.359-2.069-16.841-9.878-32.786-21.989-44.895zm-26.141 154.326c-5.975 2.218-11.724 5.403-16.467 8.888-4.7 3.452-8.616 7.285-11.666 11.324-3.05-4.039-6.966-7.872-11.666-11.324-4.743-3.484-10.491-6.67-16.465-8.888l7.91-2.659c5.12-1.722 8.56-6.795 8.56-12.625v-4.915c3.644 1.982 7.65 2.984 11.662 2.983 4.01 0 8.017-1.002 11.662-2.983v4.915c0 5.83 3.44 10.904 8.562 12.625zm-62.451-97.074c0-2.43 1.246-4.644 3.333-5.922.617-.378 1.894-1.012 3.512-1.012.892 0 1.887.192 2.933.726 7.557 3.856 16.042 5.894 24.539 5.894s16.982-2.038 24.539-5.894c2.943-1.501 5.489-.3 6.445.286 2.087 1.278 3.333 3.492 3.333 5.921v18.669c0 15.74-7.81 30.364-20.892 39.117l-8.154 5.456c-3.202 2.143-7.34 2.143-10.543 0l-8.154-5.456c-13.082-8.753-20.892-23.376-20.892-39.117v-18.668zm-239.239 107.986c-9.502 0-17.903-4.715-22.81-12.701l2.588-.87c5.121-1.722 8.561-6.795 8.561-12.625v-4.914c3.641 1.978 7.644 2.978 11.654 2.978 4.011 0 8.02-1.001 11.668-2.981v4.916c0 5.83 3.44 10.904 8.562 12.625l2.587.87c-4.907 7.986-13.308 12.702-22.81 12.702zm13.421-50.2-8.145 5.454c-3.208 2.141-7.349 2.142-10.543.006l-8.156-5.461c-13.084-8.756-20.896-23.377-20.896-39.113v-18.673c0-2.428 1.246-4.64 3.334-5.918.617-.378 1.894-1.012 3.512-1.012.892 0 1.888.193 2.934.727 3.881 1.98 19.522 6.712 48.929 15.319l3.554 1.04c3.754 1.1 6.376 4.603 6.376 8.518 0 15.734-7.812 30.356-20.899 39.113zm48.422-14.098c0 .654-.574 1.229-1.229 1.229h-17.108c3.775-8.092 5.814-17.022 5.814-26.245 0-10.53-7.056-19.952-17.159-22.912l-3.558-1.042c-13.838-4.05-42.635-12.478-46.325-14.284-6.729-3.433-14.616-3.114-21.098.854-6.575 4.026-10.5 11.021-10.5 18.71v18.673c0 9.223 2.039 18.153 5.814 26.245h-17.109c-.654 0-1.229-.574-1.229-1.229v-43.928c0-34.101 27.743-61.843 61.843-61.843s61.843 27.743 61.843 61.843v43.929zm74.939-.206-27.978-29.856c3.89-3.19 6.306-8.022 6.306-13.271v-17.941l4.865 3.253c4.901 3.292 10.592 5.026 16.484 5.026 6.072.087 12.04-1.613 17.097-5.017l4.89-3.269v17.948c0 5.251 2.417 10.084 6.31 13.274zm76.498-94.031c-10.357 13.095-16.562 29.616-16.562 47.57v11.4l-21.694-5.994c-.929-.257-1.577-1.108-1.577-2.072v-29.048c16.199-14.762 25.601-35.713 25.601-58.021l-.06-28.854c.124-9.108-6.32-17.797-15.106-20.247-13.116-3.912-22.844-8.483-26.699-12.552-5.32-5.592-12.764-8.744-20.404-8.632-7.694-.097-15.085 3.039-20.411 8.639-3.856 4.064-13.592 8.637-26.686 12.537-8.862 2.525-15.191 11.07-15.123 20.244l-.03 19.04c-.006 4.142 3.346 7.505 7.488 7.512h.012c4.136 0 7.493-3.35 7.5-7.488l.03-19.052c-.003-2.651 1.78-5.113 4.381-5.872 16.246-4.84 27.453-10.423 33.303-16.589 2.498-2.626 5.839-4.031 9.397-3.97 3.647-.134 7.113 1.266 9.664 3.959 5.845 6.17 17.045 11.755 33.33 16.611 2.541.707 4.401 3.267 4.355 5.877l.06 28.854c0 21.245-10.546 40.986-28.208 52.806l-10.634 7.109c-2.529 1.704-5.518 2.554-8.54 2.476-2.994.049-5.854-.815-8.339-2.485l-10.614-7.096c-11.049-7.402-19.376-17.878-24.081-30.296-1.468-3.873-5.796-5.824-9.671-4.356-3.874 1.467-5.824 5.797-4.356 9.671 4.415 11.653 11.416 21.915 20.505 30.188v29.038c0 .963-.648 1.815-1.577 2.072l-21.69 5.993v-8.66c0-17.956-6.207-34.48-16.566-47.576v-66.22c0-42.183 34.318-76.502 76.501-76.502s76.502 34.319 76.502 76.502v63.484z"/></g></svg>