<svg id="a" height="512" viewBox="0 0 64 64" width="512" xmlns="http://www.w3.org/2000/svg"><path d="m49.99222 29.9934h4c1.31415-.02228 1.31445-1.97778 0-2h-2v-1c0-.55225-.44775-1-1-1s-1 .44775-1 1v1c-3.95691.10529-3.95459 5.89618.00012 6-.00012 0 1.99988 0 1.99988 0 .55127 0 1 .44873 1 1s-.44873 1-1 1h-4c-1.31305.02112-1.31506 1.97827.00006 2-.00006 0 1.99994 0 1.99994 0v1c0 .55225.44775 1 1 1s1-.44775 1-1v-1c3.95605-.10443 3.9552-5.89642-.00006-6h-1.99994c-1.31287-.02252-1.3147-1.97699 0-2z"/><path d="m61.98927 32.99227c-.60201 14.58884-21.3958 14.59309-22.00002.00008 0-6.06543 4.93457-11 11-11s11 4.93457 11.00002 10.99992zm-2 .00015c-.4925-11.93632-17.50572-11.93979-18.00002-.00007 0 4.96289 4.0376 9 9 9s9-4.03711 9.00002-8.99993z"/><path d="m2.99228 61.9934c-.00006 0 57.99994 0 57.99994 0 1.28674-.01483 1.33673-1.97559 0-2h-2.55646c.34454-.59076.55646-1.26825.55646-2v-7c0-2.20557-1.79443-4-4-4h-8c-2.20557 0-4 1.79443-4 4v7c0 .73175.21191 1.40924.55646 2h-4.11292c.34454-.59076.55646-1.26825.55646-2v-16c0-2.20557-1.79443-4-4-4h-8c-2.20557 0-4 1.79443-4 4v16c0 .73175.21191 1.40924.55646 2h-4.11292c.34454-.59076.55646-1.26825.55646-2v-27.75976c-.02277-1.30853-1.97565-1.31976-2 .00006 0-.00006 0 27.7597 0 27.7597 0 1.10303-.89697 2-2 2h-8c-1.10303 0-2-.89697-2-2v-34c0-1.10303.89697-2 2-2h3.4502c1.31146-.01465 1.31451-1.9823-.00006-2h-3.45013c-2.20557 0-4 1.79443-4 4v34c0 .73175.21191 1.40924.55646 2h-2.55647c-1.2962.01715-1.32904 1.9762.00006 2zm41.99994-11c0-1.10303.89697-2 2-2h8c1.10303 0 2 .89697 2 2v7c0 1.10303-.89697 2-2 2h-8c-1.10303 0-2-.89697-2-2zm-19-9c0-1.10303.89697-2 2-2h8c1.10303 0 2 .89697 2 2v16c0 1.10303-.89697 2-2 2h-8c-1.10303 0-2-.89697-2-2z"/><path d="m21.38968 28.79125c4.20502 3.17548 8.69067 4.48688 12.38745 4.96503l-2.29956 1.3797c-1.11609.69531-.10596 2.37341 1.02936 1.71478-.00006.00006 4.99994-2.99994 4.99994-2.99994.5025-.31604.62231-1.0191.26611-1.48193l-4-5c-.81915-1.01569-2.37573.22266-1.56146 1.24908-.00006-.00006 2.59552 3.24445 2.59552 3.24445-19.04816-1.91595-22.80347-20.64807-21.81989-28.76471.11871-1.30383-1.83752-1.5191-1.98956-.20874-.07178.68304-1.62061 16.83148 10.39209 25.90228z"/></svg>