<?xml version="1.0"?>
<svg xmlns="http://www.w3.org/2000/svg" viewBox="0 0 64 64" width="512" height="512"><g id="Outline"><path d="M61.517,38.644l-.014-.023A4.738,4.738,0,0,0,55.393,37l-6.408,3.278a5.514,5.514,0,0,0-7-1.714L33.916,42.7a2.941,2.941,0,0,1-2.72-.017l-5.5-2.92a12.769,12.769,0,0,0-13.342.808l-.622-2.962a1,1,0,0,0-1.189-.772L2.789,38.51a1,1,0,0,0-.768,1.182L6.536,61.205a1,1,0,0,0,.978.8,1.054,1.054,0,0,0,.21-.022l7.758-1.67a1,1,0,0,0,.769-1.183l-.4-1.926,2.651-.57a6.879,6.879,0,0,1,2.35-.09l12.469,1.367A10.694,10.694,0,0,0,40.7,56.179l19.973-13.4A3.018,3.018,0,0,0,61.517,38.644ZM8.287,59.811,4.182,40.256l5.8-1.25L14.09,58.562ZM59.56,41.121l-19.972,13.4a8.735,8.735,0,0,1-6.03,1.4L21.09,54.554a8.762,8.762,0,0,0-3.012.12l-2.642.568L12.8,42.7l.683-.476a10.779,10.779,0,0,1,11.274-.694l5.5,2.92a4.928,4.928,0,0,0,4.57.031L42.9,40.34a3.536,3.536,0,0,1,4.67,1.378,1.009,1.009,0,0,1-.354,1.374l-11.126,6.6a8.809,8.809,0,0,1-6.473,1.025l-10.036-2.4-.465,1.946,10.046,2.4a10.81,10.81,0,0,0,7.948-1.251l11.127-6.6a3,3,0,0,0,1.454-2.652L56.3,38.778a2.736,2.736,0,0,1,3.52.929l.011.018A1.026,1.026,0,0,1,59.56,41.121Z"/><rect x="6.7" y="41.565" width="2" height="1.998" transform="translate(-8.575 2.488) rotate(-11.848)"/><path d="M21,28a1,1,0,0,0-1,1v6a1,1,0,0,0,1,1h4a1,1,0,0,0,1-1V29a1,1,0,0,0-1-1Zm3,6H22V30h2Z"/><path d="M30,21a1,1,0,0,0-1,1V35a1,1,0,0,0,1,1h4a1,1,0,0,0,1-1V22a1,1,0,0,0-1-1Zm3,13H31V23h2Z"/><path d="M39,24a1,1,0,0,0-1,1V35a1,1,0,0,0,1,1h4a1,1,0,0,0,1-1V25a1,1,0,0,0-1-1Zm3,10H40V26h2Z"/><path d="M48,19a1,1,0,0,0-1,1V35a1,1,0,0,0,1,1h4a1,1,0,0,0,1-1V20a1,1,0,0,0-1-1Zm3,15H49V21h2Z"/><path d="M21,12.414l6.293,6.293a1,1,0,0,0,1.414,0L40,7.414l8.293,8.293a1,1,0,0,0,1.414,0L60,5.414V8h2V3a1,1,0,0,0-1-1H56V4h2.586L49,13.586,40.707,5.293a1,1,0,0,0-1.414,0L28,16.586l-6.293-6.293a1,1,0,0,0-1.414,0l-14,14,1.414,1.414Z"/></g></svg>
