<svg id="Capa_1" enable-background="new 0 0 607.823 607.823" height="512" viewBox="0 0 607.823 607.823" width="512" xmlns="http://www.w3.org/2000/svg"><g><g id="Page-1_20_"><g id="_x30_21---Tax-Cuts" transform="translate(-1)"><path id="Shape_48_" d="m92.218 222.875c-27.972 0-50.648 22.676-50.648 50.648s22.676 50.648 50.648 50.648 50.648-22.676 50.648-50.648c-.034-27.958-22.69-50.614-50.648-50.648zm0 81.037c-16.783 0-30.389-13.605-30.389-30.389s13.605-30.389 30.389-30.389 30.389 13.605 30.389 30.389-13.606 30.389-30.389 30.389z"/><path id="Shape_47_" d="m92.218 465.984c-27.972 0-50.648 22.676-50.648 50.648s22.676 50.648 50.648 50.648 50.648-22.676 50.648-50.648c-.034-27.959-22.69-50.615-50.648-50.648zm0 81.036c-16.783 0-30.389-13.605-30.389-30.389 0-16.783 13.605-30.389 30.389-30.389s30.389 13.605 30.389 30.389-13.606 30.389-30.389 30.389z"/><path id="Shape_46_" d="m524.819 2.994c-1.899-1.9-4.475-2.967-7.162-2.968h-202.59c-16.783 0-30.389 13.605-30.389 30.389v283.09l-49.037 16.471c-5.683 1.955-10.948 4.961-15.518 8.863l-40.062-18c-4.263-2.051-6.073-7.158-4.052-11.436 15.538-36.323 5.912-78.52-23.841-104.512s-72.86-29.862-106.767-9.586-50.895 60.084-42.076 98.593 41.438 66.957 80.789 70.457c8.254.715 16.567.32 24.716-1.175 2.15-.485 4.4-.235 6.392.709 17.47 9.32 34.333 19.737 50.486 31.189-16.126 11.465-32.965 21.892-50.415 31.219-2.008.914-4.258 1.152-6.412.679-8.168-1.48-16.497-1.864-24.767-1.145-34.665 3.074-64.556 25.616-77.042 58.1s-5.39 69.243 18.291 94.745c17.204 18.615 41.416 29.176 66.764 29.122 2.519 0 5.048-.101 7.587-.304 40.744-3.617 74.192-33.732 82.049-73.875 3.384-17.811 1.356-36.228-5.824-52.876-2.005-4.264-.196-9.347 4.052-11.386l39.961-18.01c4.613 3.909 9.923 6.913 15.65 8.853l310.936 104.506c5.048 1.735 10.353 2.605 15.691 2.573 19.223-.025 36.641-11.331 44.489-28.879 5.304-11.815.096-25.696-11.669-31.108l-91.966-41.308h75.353c16.783 0 30.389-13.605 30.389-30.389v-344.403c-.001-2.686-1.068-5.262-2.968-7.162zm2.968 31.614 46.454 46.454h-36.324c-5.594 0-10.13-4.535-10.13-10.13zm-243.108 300.27v32.972l-41.997-18.871zm-112.944 116.013c-14.394 6.522-20.806 23.454-14.343 37.874 5.581 12.964 7.147 27.303 4.498 41.166-6.867 35.944-39.959 60.759-76.388 57.28s-64.226-34.109-64.165-70.703 27.96-67.132 64.4-70.49c6.489-.572 13.025-.283 19.439.861 6.707 1.348 13.673.373 19.753-2.765 19.965-10.651 39.133-22.733 57.353-36.152 9.569 7.701 17.91 16.814 24.736 27.026zm416.515 79.253c-4.591 10.262-14.781 16.87-26.023 16.876-3.102.021-6.185-.486-9.117-1.499l-310.975-104.517c-6.925-2.454-12.698-7.382-16.207-13.837-14.252-25.141-48.247-52.42-101.042-81.036-4.245-2.261-8.987-3.424-13.796-3.383-2.005 0-4.006.187-5.976.557-6.346 1.158-12.819 1.461-19.246.902-30.642-2.737-56.034-24.9-62.888-54.891s6.39-60.983 32.801-76.759 59.978-12.744 83.135 7.509 30.633 53.117 18.516 81.394c-6.477 14.423-.068 31.368 14.333 37.895l414.956 186.393c.791.374 1.399 1.05 1.687 1.877s.231 1.735-.158 2.519zm-9.815-84.419h-120.44l-153.057-68.779v-346.531c0-5.594 4.535-10.13 10.13-10.13h192.461v50.648c0 16.783 13.605 30.389 30.389 30.389h50.648v334.274c-.002 5.594-4.537 10.129-10.131 10.129z"/><path id="Path_86_" clip-rule="evenodd" d="m385.974 141.839c5.594 0 10.13-4.535 10.13-10.13 0-5.594-4.535-10.13-10.13-10.13h-40.518c-5.594 0-10.13 4.535-10.13 10.13 0 5.594 4.535 10.13 10.13 10.13h10.13v50.648c0 5.594 4.535 10.13 10.13 10.13 5.594 0 10.13-4.535 10.13-10.13v-50.648z" fill-rule="evenodd"/><path id="Shape_45_" d="m426.492 202.616c5.594 0 10.13-4.535 10.13-10.13v-10.13h20.259v10.13c0 5.594 4.535 10.13 10.13 10.13 5.594 0 10.13-4.535 10.13-10.13v-40.518c0-16.783-13.605-30.389-30.389-30.389-16.783 0-30.389 13.605-30.389 30.389v40.518c0 5.595 4.535 10.13 10.129 10.13zm20.259-60.777c5.594 0 10.13 4.535 10.13 10.13v10.13h-20.259v-10.13c0-5.595 4.535-10.13 10.129-10.13z"/><g clip-rule="evenodd" fill-rule="evenodd"><path id="Path_85_" d="m501.906 200.915c2.235 1.491 4.971 2.034 7.606 1.507 2.635-.526 4.953-2.078 6.444-4.313l11.831-17.777 11.831 17.747c3.105 4.655 9.395 5.911 14.05 2.806s5.911-9.395 2.806-14.05l-16.531-24.736 16.511-24.767c2.008-3.011 2.258-6.865.655-10.11s-4.816-5.388-8.428-5.622-7.074 1.477-9.083 4.488l-11.811 17.777-11.831-17.747c-3.105-4.655-9.395-5.911-14.05-2.806s-5.911 9.395-2.806 14.05l16.531 24.736-16.511 24.767c-3.109 4.649-1.862 10.939 2.786 14.05z"/><path id="Path_84_" d="m355.585 222.875h-20.259c-5.594 0-10.13 4.535-10.13 10.13s4.535 10.13 10.13 10.13h20.259c5.594 0 10.13-4.535 10.13-10.13s-4.535-10.13-10.13-10.13z"/><path id="Path_83_" d="m558.176 222.875h-162.072c-5.594 0-10.13 4.535-10.13 10.13s4.535 10.13 10.13 10.13h162.072c5.594 0 10.13-4.535 10.13-10.13s-4.536-10.13-10.13-10.13z"/><path id="Path_82_" d="m355.585 263.394h-20.259c-5.594 0-10.13 4.535-10.13 10.13s4.535 10.13 10.13 10.13h20.259c5.594 0 10.13-4.535 10.13-10.13s-4.535-10.13-10.13-10.13z"/><path id="Path_81_" d="m558.176 263.394h-162.072c-5.594 0-10.13 4.535-10.13 10.13s4.535 10.13 10.13 10.13h162.072c5.594 0 10.13-4.535 10.13-10.13s-4.536-10.13-10.13-10.13z"/><path id="Path_80_" d="m355.585 303.912h-20.259c-5.594 0-10.13 4.535-10.13 10.13 0 5.594 4.535 10.13 10.13 10.13h20.259c5.594 0 10.13-4.535 10.13-10.13s-4.535-10.13-10.13-10.13z"/><path id="Path_79_" d="m558.176 303.912h-162.072c-5.594 0-10.13 4.535-10.13 10.13 0 5.594 4.535 10.13 10.13 10.13h162.072c5.594 0 10.13-4.535 10.13-10.13-.001-5.595-4.536-10.13-10.13-10.13z"/><path id="Path_78_" d="m355.585 344.43h-20.259c-5.594 0-10.13 4.535-10.13 10.13 0 5.594 4.535 10.13 10.13 10.13h20.259c5.594 0 10.13-4.535 10.13-10.13s-4.535-10.13-10.13-10.13z"/><path id="Path_77_" d="m558.176 344.43h-162.072c-5.594 0-10.13 4.535-10.13 10.13 0 5.594 4.535 10.13 10.13 10.13h162.072c5.594 0 10.13-4.535 10.13-10.13-.001-5.595-4.536-10.13-10.13-10.13z"/></g></g></g></g></svg>