<?xml version="1.0" encoding="iso-8859-1"?>
<!-- Generator: Adobe Illustrator 19.0.0, SVG Export Plug-In . SVG Version: 6.00 Build 0)  -->
<svg version="1.1" id="Capa_1" xmlns="http://www.w3.org/2000/svg" xmlns:xlink="http://www.w3.org/1999/xlink" x="0px" y="0px"
	 viewBox="0 0 512 512" style="enable-background:new 0 0 512 512;" xml:space="preserve">
<g>
	<g>
		<path d="M267,438H64.99c-5.522,0-10,4.477-10,10s4.478,10,10,10H267c5.522,0,10-4.477,10-10S272.522,438,267,438z"/>
	</g>
</g>
<g>
	<g>
		<path d="M72.059,384.93C70.2,383.07,67.62,382,64.99,382c-2.631,0-5.211,1.07-7.07,2.93c-1.86,1.86-2.93,4.44-2.93,7.07
			s1.069,5.21,2.93,7.07c1.859,1.86,4.439,2.93,7.07,2.93c2.63,0,5.21-1.07,7.069-2.93c1.86-1.86,2.931-4.44,2.931-7.07
			S73.92,386.79,72.059,384.93z"/>
	</g>
</g>
<g>
	<g>
		<path d="M267,382H109c-5.522,0-10,4.477-10,10s4.478,10,10,10h158c5.522,0,10-4.477,10-10S272.522,382,267,382z"/>
	</g>
</g>
<g>
	<g>
		<path d="M267,326H64c-5.522,0-10,4.477-10,10s4.478,10,10,10h203c5.522,0,10-4.477,10-10S272.522,326,267,326z"/>
	</g>
</g>
<g>
	<g>
		<path d="M72.059,272.93C70.2,271.07,67.62,270,64.99,270c-2.631,0-5.211,1.07-7.07,2.93c-1.86,1.86-2.93,4.44-2.93,7.07
			s1.069,5.21,2.93,7.07c1.859,1.86,4.439,2.93,7.07,2.93c2.63,0,5.21-1.07,7.069-2.93c1.86-1.86,2.931-4.43,2.931-7.07
			C74.99,277.37,73.92,274.79,72.059,272.93z"/>
	</g>
</g>
<g>
	<g>
		<path d="M267,270H109c-5.522,0-10,4.477-10,10s4.478,10,10,10h158c5.522,0,10-4.477,10-10S272.522,270,267,270z"/>
	</g>
</g>
<g>
	<g>
		<path d="M117.453,119.812H64c-5.522,0-10,4.477-10,10c0,5.523,4.478,10,10,10h16.727v74.795c0,5.523,4.478,10,10,10
			c5.522,0,10-4.477,10-10v-74.795h16.727c5.522,0,10-4.477,10-10C127.454,124.289,122.976,119.812,117.453,119.812z"/>
	</g>
</g>
<g>
	<g>
		<path d="M217.783,210.704l-35.743-84.158c-1.568-3.693-5.192-6.091-9.204-6.091c-4.012,0-7.636,2.398-9.204,6.091l-35.744,84.158
			c-2.159,5.084,0.212,10.955,5.295,13.113c1.275,0.542,2.601,0.798,3.904,0.798c3.892,0,7.592-2.286,9.209-6.093l6.393-15.05
			h40.294l6.392,15.05c2.159,5.084,8.029,7.455,13.113,5.295C217.571,221.658,219.942,215.787,217.783,210.704z M161.183,183.473
			l11.653-27.437l11.653,27.437H161.183z"/>
	</g>
</g>
<g>
	<g>
		<path d="M276.195,172.228l23.511-37.072c2.957-4.663,1.574-10.842-3.09-13.8c-4.665-2.959-10.844-1.574-13.801,3.089
			l-18.462,29.111l-18.462-29.111c-2.958-4.663-9.135-6.047-13.801-3.089c-4.664,2.958-6.047,9.137-3.09,13.801l23.511,37.072
			L229,209.3c-2.957,4.664-1.574,10.843,3.09,13.801c1.661,1.054,3.515,1.557,5.346,1.557c3.311,0,6.551-1.643,8.455-4.646
			l18.462-29.111l18.462,29.111c1.905,3.003,5.144,4.646,8.455,4.646c1.831,0,3.685-0.503,5.346-1.557
			c4.664-2.958,6.047-9.137,3.09-13.801L276.195,172.228z"/>
	</g>
</g>
<g>
	<g>
		<path d="M485,227.938H327c-14.888,0-27,12.112-27,27V485c0,2.421,0.325,4.766,0.926,7H30c-5.514,0-10-4.486-10-10V30
			c0-5.514,4.486-10,10-10h283v60.867c0,16.685,13.574,30.26,30.26,30.26H404v82.345c0,5.523,4.478,10,10,10c5.522,0,10-4.477,10-10
			v-92.345c-0.008,0.001-0.016,0.001-0.024,0.002c0-2.602-0.993-5.16-2.905-7.073l-91-91c-1.922-1.922-4.496-2.913-7.112-2.903
			C322.975,0.099,322.984,0.054,323,0H30C13.458,0,0,13.458,0,30v452c0,16.542,13.458,30,30,30h455c14.888,0,27-12.112,27-27
			V254.938C512,240.05,499.888,227.938,485,227.938z M333,34.269l56.857,56.858H343.26c-5.657,0-10.26-4.603-10.26-10.26V34.269z
			 M492,485c0,3.86-3.141,7-7,7H327c-3.859,0-7-3.14-7-7V254.938c0-3.86,3.141-7,7-7h158c3.859,0,7,3.14,7,7V485z"/>
	</g>
</g>
<g>
	<g>
		<path d="M462,267.938H350c-5.522,0-10,4.477-10,10v40c0,5.523,4.478,10,10,10h112c5.522,0,10-4.477,10-10v-40
			C472,272.415,467.522,267.938,462,267.938z M452,307.938h-92v-20h92V307.938z"/>
	</g>
</g>
<g>
	<g>
		<path d="M362,355.938h-12c-5.522,0-10,4.477-10,10s4.478,10,10,10h12c5.522,0,10-4.477,10-10S367.522,355.938,362,355.938z"/>
	</g>
</g>
<g>
	<g>
		<path d="M412,355.938h-12c-5.522,0-10,4.477-10,10s4.478,10,10,10h12c5.522,0,10-4.477,10-10S417.522,355.938,412,355.938z"/>
	</g>
</g>
<g>
	<g>
		<path d="M462,355.938h-12c-5.522,0-10,4.477-10,10s4.478,10,10,10h12c5.522,0,10-4.477,10-10S467.522,355.938,462,355.938z"/>
	</g>
</g>
<g>
	<g>
		<path d="M362,403.938h-12c-5.522,0-10,4.477-10,10s4.478,10,10,10h12c5.522,0,10-4.477,10-10S367.522,403.938,362,403.938z"/>
	</g>
</g>
<g>
	<g>
		<path d="M412,403.938h-12c-5.522,0-10,4.477-10,10s4.478,10,10,10h12c5.522,0,10-4.477,10-10S417.522,403.938,412,403.938z"/>
	</g>
</g>
<g>
	<g>
		<path d="M462,403.938h-12c-5.522,0-10,4.477-10,10s4.478,10,10,10h12c5.522,0,10-4.477,10-10S467.522,403.938,462,403.938z"/>
	</g>
</g>
<g>
	<g>
		<path d="M362,451.938h-12c-5.522,0-10,4.477-10,10s4.478,10,10,10h12c5.522,0,10-4.477,10-10S367.522,451.938,362,451.938z"/>
	</g>
</g>
<g>
	<g>
		<path d="M412,451.938h-12c-5.522,0-10,4.477-10,10s4.478,10,10,10h12c5.522,0,10-4.477,10-10S417.522,451.938,412,451.938z"/>
	</g>
</g>
<g>
	<g>
		<path d="M462,451.938h-12c-5.522,0-10,4.477-10,10s4.478,10,10,10h12c5.522,0,10-4.477,10-10S467.522,451.938,462,451.938z"/>
	</g>
</g>
<g>
</g>
<g>
</g>
<g>
</g>
<g>
</g>
<g>
</g>
<g>
</g>
<g>
</g>
<g>
</g>
<g>
</g>
<g>
</g>
<g>
</g>
<g>
</g>
<g>
</g>
<g>
</g>
<g>
</g>
</svg>
